<?xml version="1.0" encoding="utf-8"?>
<svg version="1.1" id="Layer_1" xmlns="http://www.w3.org/2000/svg" xmlns:xlink="http://www.w3.org/1999/xlink" x="0px" y="0px"
	 viewBox="0 0 1366 768" style="enable-background:new 0 0 1366 768;" xml:space="preserve">
<style type="text/css">
	.st0{fill:none;stroke:#666666;stroke-width:10;stroke-miterlimit:10;}
	.st1{fill:none;stroke:#66CC66;stroke-width:10;stroke-miterlimit:10;}
	.st2{fill:#66CC66;}
	.st3{fill:none;stroke:#66CC66;stroke-width:9.9997;stroke-miterlimit:9.9997;}
	.st4{fill:none;stroke:#666666;stroke-width:10.0002;stroke-miterlimit:10.0002;}
	.st5{fill:none;stroke:#66CC66;stroke-width:10.0002;stroke-miterlimit:10.0002;}
	.st6{fill:none;stroke:#666666;stroke-width:9.9997;stroke-miterlimit:9.9997;}
	.st7{fill:none;stroke:#D0CC66;stroke-width:10;stroke-miterlimit:10;}
	.st8{fill:#D0CC66;}
</style>
<line class="st0" x1="236.1" y1="177.6" x2="236.1" y2="216"/>
<line class="st0" x1="335.6" y1="177.6" x2="335.6" y2="216"/>
<line class="st0" x1="536.1" y1="180.5" x2="536.1" y2="216"/>
<line class="st0" x1="635.6" y1="180.5" x2="635.6" y2="216"/>
<line class="st0" x1="435.9" y1="177.6" x2="435.9" y2="216"/>
<line class="st0" x1="727.9" y1="179" x2="727.9" y2="217.4"/>
<line class="st0" x1="828.1" y1="179" x2="828.1" y2="217.4"/>
<line class="st0" x1="927.6" y1="179" x2="927.6" y2="217.4"/>
<line class="st0" x1="1128.1" y1="182" x2="1128.1" y2="217.4"/>
<line class="st0" x1="1128.1" y1="266.4" x2="1128.1" y2="312.4"/>
<line class="st0" x1="1227.6" y1="182" x2="1227.6" y2="217.4"/>
<line class="st0" x1="1027.8" y1="179" x2="1027.8" y2="217.4"/>
<line class="st0" x1="135.9" y1="82.6" x2="135.9" y2="128.5"/>
<line class="st0" x1="236.1" y1="82.6" x2="236.1" y2="128.5"/>
<line class="st0" x1="335.6" y1="82.6" x2="335.6" y2="128.5"/>
<line class="st0" x1="435.9" y1="82.6" x2="435.9" y2="128.5"/>
<line class="st0" x1="536.1" y1="82.6" x2="536.1" y2="128.5"/>
<line class="st0" x1="635.6" y1="82.6" x2="635.6" y2="128.5"/>
<line class="st0" x1="727.9" y1="84" x2="727.9" y2="130"/>
<line class="st0" x1="828.1" y1="84" x2="828.1" y2="130"/>
<line class="st0" x1="927.6" y1="84" x2="927.6" y2="130"/>
<line class="st0" x1="1027.8" y1="84" x2="1027.8" y2="130"/>
<line class="st0" x1="1128.1" y1="84" x2="1128.1" y2="130"/>
<line class="st0" x1="135.9" y1="265" x2="135.9" y2="310.9"/>
<line class="st0" x1="233.9" y1="265" x2="233.9" y2="310.9"/>
<line class="st0" x1="335.6" y1="265" x2="335.6" y2="310.9"/>
<line class="st0" x1="536.1" y1="265" x2="536.1" y2="310.9"/>
<line class="st0" x1="635.6" y1="265" x2="635.6" y2="310.9"/>
<line class="st0" x1="435.9" y1="265" x2="435.9" y2="310.9"/>
<line class="st0" x1="727.9" y1="266.4" x2="727.9" y2="312.4"/>
<line class="st0" x1="825.9" y1="266.4" x2="825.9" y2="312.4"/>
<circle class="st1" cx="135.8" cy="58.3" r="24.4"/>
<circle class="st1" cx="235.9" cy="58.3" r="24.4"/>
<circle class="st1" cx="335.9" cy="58.3" r="24.4"/>
<circle class="st1" cx="436" cy="58.3" r="24.4"/>
<ellipse transform="matrix(0.2298 -0.9732 0.9732 0.2298 355.7633 566.5262)" class="st1" cx="535.8" cy="58.5" rx="24.4" ry="24.4"/>
<circle class="st1" cx="635.8" cy="58.5" r="24.4"/>
<g>
	<g>
		<line class="st1" x1="161.5" y1="58.4" x2="204.4" y2="58.4"/>
		<g>
			<polygon class="st2" points="192.5,68.6 202.7,58.4 192.5,48.2 201.1,48.2 211.3,58.4 201.1,68.6 			"/>
		</g>
	</g>
</g>
<g>
	<g>
		<line class="st1" x1="260.3" y1="58.4" x2="304.6" y2="58.4"/>
		<g>
			<polygon class="st2" points="292.7,68.6 302.9,58.4 292.7,48.2 301.3,48.2 311.5,58.4 301.3,68.6 			"/>
		</g>
	</g>
</g>
<g>
	<g>
		<line class="st1" x1="360.5" y1="58.4" x2="404.9" y2="58.4"/>
		<g>
			<polygon class="st2" points="393,68.6 403.2,58.4 393,48.2 401.6,48.2 411.8,58.4 401.6,68.6 			"/>
		</g>
	</g>
</g>
<g>
	<g>
		<line class="st1" x1="460.7" y1="58.4" x2="504.3" y2="58.4"/>
		<g>
			<polygon class="st2" points="492.4,68.6 502.6,58.4 492.4,48.2 501,48.2 511.2,58.4 501,68.6 			"/>
		</g>
	</g>
</g>
<g>
	<g>
		<line class="st1" x1="560.3" y1="58.4" x2="604.6" y2="58.4"/>
		<g>
			<polygon class="st2" points="592.7,68.6 602.9,58.4 592.7,48.2 601.3,48.2 611.5,58.4 601.3,68.6 			"/>
		</g>
	</g>
</g>
<circle class="st1" cx="135.9" cy="152.9" r="24.4"/>
<circle class="st1" cx="235.9" cy="152.9" r="24.4"/>
<circle class="st1" cx="336" cy="152.9" r="24.4"/>
<ellipse transform="matrix(0.329 -0.9443 0.9443 0.329 214.9813 608.6606)" class="st3" cx="535.8" cy="153.1" rx="24.4" ry="24.4"/>
<circle class="st1" cx="635.9" cy="153" r="24.4"/>
<g>
	<g>
		<line class="st1" x1="168.5" y1="153" x2="211.3" y2="153"/>
		<g>
			<polygon class="st2" points="180.4,163.2 170.2,153 180.4,142.8 171.8,142.8 161.6,153 171.8,163.2 			"/>
		</g>
	</g>
</g>
<g>
	<g>
		<line class="st1" x1="267.2" y1="153" x2="311.6" y2="153"/>
		<g>
			<polygon class="st2" points="279.1,163.2 268.9,153 279.1,142.8 270.5,142.8 260.3,153 270.5,163.2 			"/>
		</g>
	</g>
</g>
<g>
	<g>
		<line class="st1" x1="367.4" y1="153" x2="411.8" y2="153"/>
		<g>
			<polygon class="st2" points="379.3,163.2 369.1,153 379.3,142.8 370.7,142.8 360.5,153 370.7,163.2 			"/>
		</g>
	</g>
</g>
<g>
	<g>
		<line class="st1" x1="467.7" y1="153" x2="511.3" y2="153"/>
		<g>
			<polygon class="st2" points="479.6,163.2 469.4,153 479.6,142.8 471,142.8 460.8,153 471,163.2 			"/>
		</g>
	</g>
</g>
<g>
	<g>
		<line class="st1" x1="567.2" y1="153" x2="611.6" y2="153"/>
		<g>
			<polygon class="st2" points="579.1,163.2 568.9,153 579.1,142.8 570.5,142.8 560.3,153 570.5,163.2 			"/>
		</g>
	</g>
</g>
<path class="st1" d="M111.4,240.6c0-13.5,10.9-24.4,24.4-24.4s24.4,10.9,24.4,24.4S149.3,265,135.8,265S111.4,254,111.4,240.6"/>
<circle class="st1" cx="235.9" cy="240.6" r="24.4"/>
<circle class="st1" cx="635.9" cy="240.7" r="24.4"/>
<g>
	<g>
		<line class="st1" x1="161.5" y1="240.7" x2="204.4" y2="240.7"/>
		<g>
			<polygon class="st2" points="192.5,250.9 202.7,240.7 192.5,230.5 201.1,230.5 211.3,240.7 201.1,250.9 			"/>
		</g>
	</g>
</g>
<g>
	<g>
		<line class="st1" x1="260.3" y1="240.7" x2="304.7" y2="240.7"/>
		<g>
			<polygon class="st2" points="292.8,250.9 303,240.7 292.8,230.5 301.4,230.5 311.6,240.7 301.4,250.9 			"/>
		</g>
	</g>
</g>
<g>
	<g>
		<line class="st1" x1="560.3" y1="240.7" x2="604.6" y2="240.7"/>
		<g>
			<polygon class="st2" points="592.7,250.9 602.9,240.7 592.7,230.5 601.3,230.5 611.5,240.7 601.3,250.9 			"/>
		</g>
	</g>
</g>
<path class="st0" d="M111.5,335.1c0-13.5,10.9-24.4,24.4-24.4s24.4,10.9,24.4,24.4s-10.9,24.4-24.4,24.4S111.5,348.5,111.5,335.1"/>
<circle class="st0" cx="236" cy="335.1" r="24.4"/>
<circle class="st0" cx="336" cy="335.1" r="24.4"/>
<ellipse transform="matrix(0.3162 -0.9487 0.9487 0.3162 48.4117 737.5499)" class="st4" cx="535.9" cy="335.2" rx="24.4" ry="24.4"/>
<circle class="st0" cx="635.9" cy="335.2" r="24.4"/>
<line class="st0" x1="161.6" y1="335.2" x2="211.4" y2="335.2"/>
<line class="st0" x1="260.4" y1="335.2" x2="311.6" y2="335.2"/>
<line class="st0" x1="360.6" y1="335.2" x2="411.8" y2="335.2"/>
<line class="st0" x1="460.8" y1="335.2" x2="511.3" y2="335.2"/>
<line class="st0" x1="560.3" y1="335.2" x2="611.6" y2="335.2"/>
<g>
	<g>
		<line class="st1" x1="135.9" y1="177.6" x2="135.9" y2="209.1"/>
		<g>
			<polygon class="st2" points="125.7,197.2 135.9,207.4 146.1,197.2 146.1,205.8 135.9,216 125.7,205.8 			"/>
		</g>
	</g>
</g>
<circle class="st1" cx="436" cy="152.9" r="24.4"/>
<circle class="st1" cx="336" cy="240.6" r="24.4"/>
<circle class="st1" cx="436" cy="240.6" r="24.4"/>
<ellipse transform="matrix(0.4394 -0.8983 0.8983 0.4394 84.2289 616.3173)" class="st5" cx="535.9" cy="240.7" rx="24.4" ry="24.4"/>
<g>
	<g>
		<line class="st1" x1="360.5" y1="240.7" x2="404.9" y2="240.7"/>
		<g>
			<polygon class="st2" points="393,250.9 403.2,240.7 393,230.5 401.6,230.5 411.8,240.7 401.6,250.9 			"/>
		</g>
	</g>
</g>
<g>
	<g>
		<line class="st1" x1="460.8" y1="240.7" x2="504.4" y2="240.7"/>
		<g>
			<polygon class="st2" points="492.5,250.9 502.7,240.7 492.5,230.5 501.1,230.5 511.3,240.7 501.1,250.9 			"/>
		</g>
	</g>
</g>
<circle class="st0" cx="436.1" cy="335.1" r="24.4"/>
<circle class="st1" cx="727.8" cy="59.8" r="24.4"/>
<circle class="st1" cx="827.8" cy="59.8" r="24.4"/>
<circle class="st1" cx="927.9" cy="59.8" r="24.4"/>
<circle class="st1" cx="1027.9" cy="59.8" r="24.4"/>
<circle class="st1" cx="1127.8" cy="59.9" r="24.4"/>
<circle class="st1" cx="1227.8" cy="59.9" r="24.4"/>
<g>
	<g>
		<line class="st1" x1="753.5" y1="59.9" x2="796.4" y2="59.9"/>
		<g>
			<polygon class="st2" points="784.5,70.1 794.7,59.9 784.5,49.7 793.1,49.7 803.3,59.9 793.1,70.1 			"/>
		</g>
	</g>
</g>
<g>
	<g>
		<line class="st1" x1="852.2" y1="59.9" x2="896.6" y2="59.9"/>
		<g>
			<polygon class="st2" points="884.7,70.1 894.9,59.9 884.7,49.7 893.3,49.7 903.5,59.9 893.3,70.1 			"/>
		</g>
	</g>
</g>
<g>
	<g>
		<line class="st1" x1="952.5" y1="59.9" x2="996.8" y2="59.9"/>
		<g>
			<polygon class="st2" points="984.9,70.1 995.1,59.9 984.9,49.7 993.5,49.7 1003.7,59.9 993.5,70.1 			"/>
		</g>
	</g>
</g>
<g>
	<g>
		<line class="st1" x1="1052.7" y1="59.9" x2="1096.3" y2="59.9"/>
		<g>
			<polygon class="st2" points="1084.4,70.1 1094.6,59.9 1084.4,49.7 1093,49.7 1103.2,59.9 1093,70.1 			"/>
		</g>
	</g>
</g>
<g>
	<g>
		<line class="st1" x1="1152.2" y1="59.9" x2="1196.6" y2="59.9"/>
		<g>
			<polygon class="st2" points="1184.7,70.1 1194.9,59.9 1184.7,49.7 1193.3,49.7 1203.5,59.9 1193.3,70.1 			"/>
		</g>
	</g>
</g>
<circle class="st1" cx="727.8" cy="154.3" r="24.4"/>
<circle class="st1" cx="827.9" cy="154.3" r="24.4"/>
<circle class="st1" cx="927.9" cy="154.3" r="24.4"/>
<ellipse transform="matrix(0.1735 -0.9848 0.9848 0.1735 779.9576 1238.4158)" class="st3" cx="1127.8" cy="154.5" rx="24.4" ry="24.4"/>
<circle class="st1" cx="1227.8" cy="154.5" r="24.4"/>
<g>
	<g>
		<line class="st1" x1="760.5" y1="154.4" x2="803.3" y2="154.4"/>
		<g>
			<polygon class="st2" points="772.4,164.6 762.2,154.4 772.4,144.2 763.8,144.2 753.6,154.4 763.8,164.6 			"/>
		</g>
	</g>
</g>
<g>
	<g>
		<line class="st1" x1="859.2" y1="154.4" x2="903.5" y2="154.4"/>
		<g>
			<polygon class="st2" points="871.1,164.6 860.9,154.4 871.1,144.2 862.5,144.2 852.3,154.4 862.5,164.6 			"/>
		</g>
	</g>
</g>
<g>
	<g>
		<line class="st1" x1="959.4" y1="154.4" x2="1003.8" y2="154.4"/>
		<g>
			<polygon class="st2" points="971.3,164.6 961.1,154.4 971.3,144.2 962.7,144.2 952.5,154.4 962.7,164.6 			"/>
		</g>
	</g>
</g>
<g>
	<g>
		<line class="st1" x1="1059.7" y1="154.4" x2="1103.3" y2="154.4"/>
		<g>
			<polygon class="st2" points="1071.6,164.6 1061.4,154.4 1071.6,144.2 1063,144.2 1052.8,154.4 1063,164.6 			"/>
		</g>
	</g>
</g>
<g>
	<g>
		<line class="st1" x1="1159.2" y1="154.4" x2="1203.5" y2="154.4"/>
		<g>
			<polygon class="st2" points="1171.1,164.6 1160.9,154.4 1171.1,144.2 1162.5,144.2 1152.3,154.4 1162.5,164.6 			"/>
		</g>
	</g>
</g>
<path class="st1" d="M703.4,242c0-13.5,10.9-24.4,24.4-24.4s24.4,10.9,24.4,24.4s-10.9,24.4-24.4,24.4S703.4,255.5,703.4,242"/>
<circle class="st1" cx="827.9" cy="242" r="24.4"/>
<circle class="st1" cx="1227.8" cy="242.1" r="24.4"/>
<g>
	<g>
		<line class="st1" x1="753.5" y1="242.1" x2="796.4" y2="242.1"/>
		<g>
			<polygon class="st2" points="784.5,252.3 794.7,242.1 784.5,231.9 793.1,231.9 803.3,242.1 793.1,252.3 			"/>
		</g>
	</g>
</g>
<g>
	<g>
		<line class="st1" x1="852.3" y1="242.1" x2="896.6" y2="242.1"/>
		<g>
			<polygon class="st2" points="884.7,252.3 894.9,242.1 884.7,231.9 893.3,231.9 903.5,242.1 893.3,252.3 			"/>
		</g>
	</g>
</g>
<g>
	<g>
		<line class="st1" x1="1152.2" y1="242.1" x2="1196.6" y2="242.1"/>
		<g>
			<polygon class="st2" points="1184.7,252.3 1194.9,242.1 1184.7,231.9 1193.3,231.9 1203.5,242.1 1193.3,252.3 			"/>
		</g>
	</g>
</g>
<path class="st0" d="M703.4,336.5c0-13.5,10.9-24.4,24.4-24.4s24.4,10.9,24.4,24.4s-10.9,24.4-24.4,24.4S703.4,350,703.4,336.5"/>
<circle class="st0" cx="827.9" cy="336.5" r="24.4"/>
<circle class="st1" cx="1227.9" cy="336.7" r="24.4"/>
<line class="st0" x1="753.6" y1="336.6" x2="803.3" y2="336.6"/>
<line class="st0" x1="852.3" y1="336.6" x2="903.6" y2="336.6"/>
<line class="st0" x1="927.6" y1="266.4" x2="927.6" y2="312.4"/>
<g>
	<g>
		<line class="st1" x1="1227.6" y1="84" x2="1227.6" y2="123.1"/>
		<g>
			<polygon class="st2" points="1217.4,111.2 1227.6,121.4 1237.8,111.2 1237.8,119.8 1227.6,130 1217.4,119.8 			"/>
		</g>
	</g>
</g>
<g>
	<g>
		<line class="st1" x1="1227.6" y1="266.4" x2="1227.6" y2="305.5"/>
		<g>
			<polygon class="st2" points="1217.4,293.6 1227.6,303.8 1237.8,293.6 1237.8,302.2 1227.6,312.4 1217.4,302.2 			"/>
		</g>
	</g>
</g>
<circle class="st1" cx="1028" cy="154.3" r="24.4"/>
<circle class="st1" cx="927.9" cy="242" r="24.4"/>
<ellipse transform="matrix(0.1602 -0.9871 0.9871 0.1602 708.1616 1316.5602)" class="st5" cx="1127.8" cy="242.1" rx="24.4" ry="24.4"/>
<g>
	<g>
		<line class="st1" x1="1052.8" y1="242.1" x2="1096.4" y2="242.1"/>
		<g>
			<polygon class="st2" points="1084.5,252.3 1094.7,242.1 1084.5,231.9 1093.1,231.9 1103.3,242.1 1093.1,252.3 			"/>
		</g>
	</g>
</g>
<line class="st0" x1="136.3" y1="360.9" x2="136.3" y2="406.9"/>
<line class="st0" x1="234.3" y1="360.9" x2="234.3" y2="406.9"/>
<line class="st0" x1="336" y1="360.9" x2="336" y2="406.9"/>
<line class="st0" x1="536.5" y1="360.9" x2="536.5" y2="406.9"/>
<line class="st0" x1="636" y1="360.9" x2="636" y2="406.9"/>
<line class="st0" x1="436.3" y1="360.9" x2="436.3" y2="406.9"/>
<line class="st0" x1="728.3" y1="362.3" x2="728.3" y2="408.3"/>
<line class="st0" x1="826.3" y1="362.3" x2="826.3" y2="408.3"/>
<line class="st0" x1="928.1" y1="362.3" x2="928.1" y2="408.3"/>
<line class="st0" x1="1128.5" y1="362.3" x2="1128.5" y2="408.3"/>
<line class="st0" x1="1228.1" y1="362.3" x2="1228.1" y2="408.3"/>
<g>
	<g>
		<line class="st1" x1="656.1" y1="58.4" x2="700.5" y2="58.4"/>
		<g>
			<polygon class="st2" points="688.6,68.6 698.8,58.4 688.6,48.2 697.2,48.2 707.4,58.4 697.2,68.6 			"/>
		</g>
	</g>
</g>
<g>
	<g>
		<line class="st1" x1="663.1" y1="152.9" x2="707.4" y2="152.9"/>
		<g>
			<polygon class="st2" points="675,163.1 664.8,152.9 675,142.7 666.4,142.7 656.2,152.9 666.4,163.1 			"/>
		</g>
	</g>
</g>
<g>
	<g>
		<line class="st1" x1="656.1" y1="240.6" x2="700.5" y2="240.6"/>
		<g>
			<polygon class="st2" points="688.6,250.8 698.8,240.6 688.6,230.4 697.2,230.4 707.4,240.6 697.2,250.8 			"/>
		</g>
	</g>
</g>
<line class="st0" x1="656.2" y1="335.1" x2="707.4" y2="335.1"/>
<circle class="st0" cx="138.1" cy="431.3" r="24.4"/>
<ellipse transform="matrix(0.1602 -0.9871 0.9871 0.1602 -225.6862 597.3376)" class="st0" cx="238.2" cy="431.3" rx="24.4" ry="24.4"/>
<circle class="st0" cx="338.2" cy="431.3" r="24.4"/>
<circle class="st0" cx="438.3" cy="431.3" r="24.4"/>
<circle class="st0" cx="538.1" cy="431.5" r="24.4"/>
<circle class="st0" cx="638.1" cy="431.5" r="24.4"/>
<line class="st0" x1="163.8" y1="431.4" x2="213.6" y2="431.4"/>
<line class="st0" x1="262.6" y1="431.4" x2="313.8" y2="431.4"/>
<line class="st0" x1="362.8" y1="431.4" x2="414" y2="431.4"/>
<line class="st0" x1="463" y1="431.4" x2="513.5" y2="431.4"/>
<line class="st0" x1="562.6" y1="431.4" x2="613.8" y2="431.4"/>
<ellipse transform="matrix(4.531447e-02 -0.999 0.999 4.531447e-02 -393.3224 640.0317)" class="st0" cx="138.2" cy="525.8" rx="24.4" ry="24.4"/>
<ellipse transform="matrix(0.9871 -0.1602 0.1602 0.9871 -81.1481 44.9449)" class="st0" cx="238.2" cy="525.8" rx="24.4" ry="24.4"/>
<circle class="st0" cx="338.2" cy="525.8" r="24.4"/>
<ellipse class="st6" cx="538.1" cy="526" rx="24.4" ry="24.4"/>
<circle class="st0" cx="638.2" cy="526" r="24.4"/>
<line class="st0" x1="163.9" y1="525.9" x2="213.6" y2="525.9"/>
<line class="st0" x1="262.6" y1="525.9" x2="313.9" y2="525.9"/>
<line class="st0" x1="362.8" y1="525.9" x2="414.1" y2="525.9"/>
<line class="st0" x1="463.1" y1="525.9" x2="513.6" y2="525.9"/>
<line class="st0" x1="562.6" y1="525.9" x2="613.9" y2="525.9"/>
<path class="st0" d="M113.7,613.5c0-13.5,10.9-24.4,24.4-24.4s24.4,10.9,24.4,24.4s-10.9,24.4-24.4,24.4
	C124.7,637.9,113.7,627,113.7,613.5"/>
<ellipse transform="matrix(0.9951 -9.853765e-02 9.853765e-02 0.9951 -59.2936 26.4574)" class="st0" cx="238.2" cy="613.5" rx="24.4" ry="24.4"/>
<circle class="st0" cx="638.2" cy="613.6" r="24.4"/>
<line class="st0" x1="163.8" y1="613.6" x2="213.6" y2="613.6"/>
<line class="st0" x1="262.6" y1="613.6" x2="313.9" y2="613.6"/>
<line class="st0" x1="562.6" y1="613.6" x2="613.8" y2="613.6"/>
<path class="st0" d="M113.8,708.1c0-13.5,10.9-24.4,24.4-24.4s24.4,10.9,24.4,24.4s-10.9,24.4-24.4,24.4S113.8,721.5,113.8,708.1"/>
<ellipse transform="matrix(0.9951 -9.853765e-02 9.853765e-02 0.9951 -68.6153 26.9178)" class="st0" cx="238.2" cy="708.1" rx="24.4" ry="24.4"/>
<circle class="st0" cx="338.3" cy="708.1" r="24.4"/>
<ellipse class="st4" cx="538.2" cy="708.2" rx="24.4" ry="24.4"/>
<circle class="st0" cx="638.2" cy="708.2" r="24.4"/>
<line class="st0" x1="163.9" y1="708.1" x2="213.7" y2="708.1"/>
<line class="st0" x1="262.6" y1="708.1" x2="313.9" y2="708.1"/>
<line class="st0" x1="362.9" y1="708.1" x2="414.1" y2="708.1"/>
<line class="st0" x1="463.1" y1="708.1" x2="513.6" y2="708.1"/>
<line class="st0" x1="562.6" y1="708.1" x2="613.9" y2="708.1"/>
<line class="st0" x1="138.2" y1="455.5" x2="138.2" y2="501.5"/>
<line class="st0" x1="138.2" y1="550.5" x2="138.2" y2="588.9"/>
<line class="st0" x1="138.2" y1="637.9" x2="138.2" y2="683.9"/>
<line class="st0" x1="238.4" y1="455.5" x2="238.4" y2="501.5"/>
<line class="st0" x1="238.4" y1="550.5" x2="238.4" y2="588.9"/>
<line class="st0" x1="236.2" y1="637.9" x2="236.2" y2="683.9"/>
<line class="st0" x1="337.9" y1="455.5" x2="337.9" y2="501.5"/>
<line class="st0" x1="337.9" y1="550.5" x2="337.9" y2="588.9"/>
<line class="st0" x1="337.9" y1="637.9" x2="337.9" y2="683.9"/>
<line class="st0" x1="438.2" y1="455.5" x2="438.2" y2="501.5"/>
<line class="st0" x1="538.4" y1="455.5" x2="538.4" y2="501.5"/>
<line class="st0" x1="538.4" y1="553.5" x2="538.4" y2="588.9"/>
<line class="st0" x1="538.4" y1="637.9" x2="538.4" y2="683.9"/>
<line class="st0" x1="637.9" y1="455.5" x2="637.9" y2="501.5"/>
<line class="st0" x1="637.9" y1="553.5" x2="637.9" y2="588.9"/>
<line class="st0" x1="637.9" y1="637.9" x2="637.9" y2="683.9"/>
<circle class="st0" cx="438.3" cy="525.8" r="24.4"/>
<circle class="st0" cx="338.2" cy="613.5" r="24.4"/>
<circle class="st0" cx="438.3" cy="613.5" r="24.4"/>
<ellipse class="st4" cx="538.1" cy="613.6" rx="24.4" ry="24.4"/>
<line class="st0" x1="362.8" y1="613.6" x2="414.1" y2="613.6"/>
<line class="st0" x1="463.1" y1="613.6" x2="513.6" y2="613.6"/>
<circle class="st0" cx="438.3" cy="708.1" r="24.4"/>
<line class="st0" x1="438.2" y1="550.5" x2="438.2" y2="588.9"/>
<line class="st0" x1="438.2" y1="637.9" x2="438.2" y2="683.9"/>
<circle class="st0" cx="730.1" cy="432.8" r="24.4"/>
<circle class="st0" cx="830.1" cy="432.8" r="24.4"/>
<circle class="st0" cx="930.2" cy="432.8" r="24.4"/>
<circle class="st0" cx="1130" cy="432.9" r="24.4"/>
<circle class="st0" cx="1230.1" cy="432.9" r="24.4"/>
<line class="st0" x1="755.8" y1="432.9" x2="805.5" y2="432.9"/>
<line class="st0" x1="854.5" y1="432.9" x2="905.8" y2="432.9"/>
<line class="st0" x1="954.8" y1="432.9" x2="1006" y2="432.9"/>
<line class="st0" x1="1055" y1="432.9" x2="1105.5" y2="432.9"/>
<line class="st0" x1="1154.5" y1="432.9" x2="1205.8" y2="432.9"/>
<circle class="st0" cx="730.1" cy="527.3" r="24.4"/>
<circle class="st0" cx="830.2" cy="527.3" r="24.4"/>
<circle class="st0" cx="930.2" cy="527.3" r="24.4"/>
<ellipse class="st6" cx="1130" cy="527.5" rx="24.4" ry="24.4"/>
<circle class="st0" cx="1230.1" cy="527.4" r="24.4"/>
<line class="st0" x1="755.8" y1="527.4" x2="805.6" y2="527.4"/>
<line class="st0" x1="854.6" y1="527.4" x2="905.8" y2="527.4"/>
<line class="st0" x1="954.8" y1="527.4" x2="1006.1" y2="527.4"/>
<line class="st0" x1="1055.1" y1="527.4" x2="1105.6" y2="527.4"/>
<line class="st0" x1="1154.6" y1="527.4" x2="1205.8" y2="527.4"/>
<path class="st0" d="M705.7,615c0-13.5,10.9-24.4,24.4-24.4s24.4,10.9,24.4,24.4s-10.9,24.4-24.4,24.4S705.7,628.4,705.7,615"/>
<circle class="st0" cx="830.2" cy="615" r="24.4"/>
<circle class="st0" cx="1230.1" cy="615.1" r="24.4"/>
<line class="st0" x1="755.8" y1="615.1" x2="805.5" y2="615.1"/>
<line class="st0" x1="854.6" y1="615.1" x2="905.8" y2="615.1"/>
<line class="st0" x1="1154.5" y1="615.1" x2="1205.8" y2="615.1"/>
<path class="st0" d="M705.7,709.5c0-13.5,10.9-24.4,24.4-24.4s24.4,10.9,24.4,24.4s-10.9,24.4-24.4,24.4S705.7,723,705.7,709.5"/>
<circle class="st0" cx="830.2" cy="709.5" r="24.4"/>
<circle class="st0" cx="930.3" cy="709.5" r="24.4"/>
<ellipse class="st4" cx="1130.2" cy="709.7" rx="24.4" ry="24.4"/>
<circle class="st0" cx="1230.2" cy="709.7" r="24.4"/>
<line class="st0" x1="755.8" y1="709.6" x2="805.6" y2="709.6"/>
<line class="st0" x1="854.6" y1="709.6" x2="905.9" y2="709.6"/>
<line class="st0" x1="954.9" y1="709.6" x2="1006.1" y2="709.6"/>
<line class="st0" x1="1055.1" y1="709.6" x2="1105.6" y2="709.6"/>
<line class="st0" x1="1154.6" y1="709.6" x2="1205.8" y2="709.6"/>
<line class="st0" x1="730.2" y1="457" x2="730.2" y2="502.9"/>
<line class="st0" x1="730.2" y1="552" x2="730.2" y2="590.4"/>
<line class="st0" x1="730.2" y1="639.4" x2="730.2" y2="685.4"/>
<line class="st0" x1="830.4" y1="457" x2="830.4" y2="502.9"/>
<line class="st0" x1="830.4" y1="552" x2="830.4" y2="590.4"/>
<line class="st0" x1="828.1" y1="639.4" x2="828.1" y2="685.4"/>
<line class="st0" x1="929.9" y1="457" x2="929.9" y2="502.9"/>
<line class="st0" x1="929.9" y1="552" x2="929.9" y2="590.4"/>
<line class="st0" x1="929.9" y1="639.4" x2="929.9" y2="685.4"/>
<line class="st0" x1="1030.1" y1="457" x2="1030.1" y2="502.9"/>
<line class="st0" x1="1130.4" y1="457" x2="1130.4" y2="502.9"/>
<line class="st0" x1="1130.4" y1="555" x2="1130.4" y2="590.4"/>
<line class="st0" x1="1130.4" y1="639.4" x2="1130.4" y2="685.4"/>
<line class="st0" x1="1229.9" y1="457" x2="1229.9" y2="502.9"/>
<line class="st0" x1="1229.9" y1="555" x2="1229.9" y2="590.4"/>
<line class="st0" x1="1229.9" y1="639.4" x2="1229.9" y2="685.4"/>
<circle class="st0" cx="1030.3" cy="527.3" r="24.4"/>
<circle class="st0" cx="930.2" cy="615" r="24.4"/>
<circle class="st0" cx="1030.3" cy="615" r="24.4"/>
<ellipse class="st4" cx="1130.1" cy="615.1" rx="24.4" ry="24.4"/>
<line class="st0" x1="954.8" y1="615.1" x2="1006.1" y2="615.1"/>
<line class="st0" x1="1055.1" y1="615.1" x2="1105.5" y2="615.1"/>
<circle class="st0" cx="1030.3" cy="709.5" r="24.4"/>
<line class="st0" x1="1030.1" y1="552" x2="1030.1" y2="590.4"/>
<line class="st0" x1="1030.1" y1="639.4" x2="1030.1" y2="685.4"/>
<line class="st0" x1="658.4" y1="431.4" x2="709.7" y2="431.4"/>
<line class="st0" x1="658.4" y1="525.9" x2="709.7" y2="525.9"/>
<line class="st0" x1="658.4" y1="613.6" x2="709.7" y2="613.6"/>
<line class="st0" x1="658.4" y1="708.1" x2="709.7" y2="708.1"/>
<line class="st7" x1="1027.8" y1="266.4" x2="1027.8" y2="312.4"/>
<line class="st7" x1="1028.3" y1="362.3" x2="1028.3" y2="408.3"/>
<circle class="st7" cx="928" cy="336.5" r="24.4"/>
<ellipse transform="matrix(0.1602 -0.9871 0.9871 0.1602 614.8119 1396.0933)" class="st7" cx="1127.9" cy="336.7" rx="24.4" ry="24.4"/>
<line class="st7" x1="952.6" y1="336.6" x2="1003.8" y2="336.6"/>
<g>
	<g>
		<line class="st7" x1="1059.7" y1="336.6" x2="1103.3" y2="336.6"/>
		<g>
			<polygon class="st8" points="1071.6,346.8 1061.4,336.6 1071.6,326.4 1063,326.4 1052.8,336.6 1063,346.8 			"/>
		</g>
	</g>
</g>
<circle class="st7" cx="1028" cy="242" r="24.4"/>
<circle class="st7" cx="1028" cy="336.5" r="24.4"/>
<circle class="st7" cx="1030.2" cy="432.8" r="24.4"/>
<g>
	<g>
		<line class="st1" x1="952.5" y1="242.1" x2="996.9" y2="242.1"/>
		<g>
			<polygon class="st2" points="985,252.3 995.2,242.1 985,231.9 993.6,231.9 1003.8,242.1 993.6,252.3 			"/>
		</g>
	</g>
</g>
<g>
	<g>
		<line class="st1" x1="1159.2" y1="336.6" x2="1203.5" y2="336.6"/>
		<g>
			<polygon class="st2" points="1171.1,346.8 1160.9,336.6 1171.1,326.4 1162.5,326.4 1152.3,336.6 1162.5,346.8 			"/>
		</g>
	</g>
</g>
</svg>
