<?xml version="1.0" encoding="utf-8"?>
<svg version="1.1" id="Layer_1" xmlns="http://www.w3.org/2000/svg" xmlns:xlink="http://www.w3.org/1999/xlink" x="0px" y="0px"
	 viewBox="0 0 1366 768" style="enable-background:new 0 0 1366 768;" xml:space="preserve">
<style type="text/css">
	.st0{fill:none;stroke:#666666;stroke-width:10;stroke-miterlimit:10;}
</style>
<circle class="st0" cx="135.8" cy="58.3" r="24.4"/>
<circle class="st0" cx="235.9" cy="58.3" r="24.4"/>
<circle class="st0" cx="335.9" cy="58.3" r="24.4"/>
<circle class="st0" cx="436" cy="58.3" r="24.4"/>
<circle class="st0" cx="535.8" cy="58.5" r="24.4"/>
<circle class="st0" cx="635.8" cy="58.5" r="24.4"/>
<line class="st0" x1="161.5" y1="58.4" x2="211.3" y2="58.4"/>
<line class="st0" x1="260.3" y1="58.4" x2="311.5" y2="58.4"/>
<line class="st0" x1="360.5" y1="58.4" x2="411.8" y2="58.4"/>
<line class="st0" x1="460.7" y1="58.4" x2="511.2" y2="58.4"/>
<line class="st0" x1="560.3" y1="58.4" x2="611.5" y2="58.4"/>
<circle class="st0" cx="135.9" cy="152.9" r="24.4"/>
<circle class="st0" cx="235.9" cy="152.9" r="24.4"/>
<circle class="st0" cx="336" cy="152.9" r="24.4"/>
<ellipse transform="matrix(0.1735 -0.9848 0.9848 0.1735 292.162 654.1609)" class="st0" cx="535.8" cy="153" rx="24.4" ry="24.4"/>
<circle class="st0" cx="635.9" cy="153" r="24.4"/>
<line class="st0" x1="161.6" y1="153" x2="211.3" y2="153"/>
<line class="st0" x1="260.3" y1="153" x2="311.6" y2="153"/>
<line class="st0" x1="360.5" y1="153" x2="411.8" y2="153"/>
<line class="st0" x1="460.8" y1="153" x2="511.3" y2="153"/>
<line class="st0" x1="560.3" y1="153" x2="611.6" y2="153"/>
<path class="st0" d="M111.4,240.6c0-13.5,10.9-24.4,24.4-24.4s24.4,10.9,24.4,24.4c0,13.5-10.9,24.4-24.4,24.4
	S111.4,254,111.4,240.6"/>
<circle class="st0" cx="235.9" cy="240.6" r="24.4"/>
<circle class="st0" cx="635.9" cy="240.7" r="24.4"/>
<line class="st0" x1="161.5" y1="240.7" x2="211.3" y2="240.7"/>
<line class="st0" x1="260.3" y1="240.7" x2="311.6" y2="240.7"/>
<line class="st0" x1="560.3" y1="240.7" x2="611.5" y2="240.7"/>
<path class="st0" d="M111.5,335.1c0-13.5,10.9-24.4,24.4-24.4c13.5,0,24.4,10.9,24.4,24.4c0,13.5-10.9,24.4-24.4,24.4
	C122.4,359.5,111.5,348.5,111.5,335.1"/>
<circle class="st0" cx="236" cy="335.1" r="24.4"/>
<circle class="st0" cx="336" cy="335.1" r="24.4"/>
<ellipse transform="matrix(0.1602 -0.9871 0.9871 0.1602 119.135 810.4785)" class="st0" cx="535.9" cy="335.2" rx="24.4" ry="24.4"/>
<circle class="st0" cx="635.9" cy="335.2" r="24.4"/>
<line class="st0" x1="161.6" y1="335.2" x2="211.4" y2="335.2"/>
<line class="st0" x1="260.4" y1="335.2" x2="311.6" y2="335.2"/>
<line class="st0" x1="360.6" y1="335.2" x2="411.8" y2="335.2"/>
<line class="st0" x1="460.8" y1="335.2" x2="511.3" y2="335.2"/>
<line class="st0" x1="560.3" y1="335.2" x2="611.6" y2="335.2"/>
<line class="st0" x1="135.9" y1="82.6" x2="135.9" y2="128.5"/>
<line class="st0" x1="135.9" y1="177.6" x2="135.9" y2="216"/>
<line class="st0" x1="135.9" y1="265" x2="135.9" y2="310.9"/>
<line class="st0" x1="236.1" y1="82.6" x2="236.1" y2="128.5"/>
<line class="st0" x1="236.1" y1="177.6" x2="236.1" y2="216"/>
<line class="st0" x1="233.9" y1="265" x2="233.9" y2="310.9"/>
<line class="st0" x1="335.6" y1="82.6" x2="335.6" y2="128.5"/>
<line class="st0" x1="335.6" y1="177.6" x2="335.6" y2="216"/>
<line class="st0" x1="335.6" y1="265" x2="335.6" y2="310.9"/>
<line class="st0" x1="435.9" y1="82.6" x2="435.9" y2="128.5"/>
<line class="st0" x1="536.1" y1="82.6" x2="536.1" y2="128.5"/>
<line class="st0" x1="536.1" y1="180.5" x2="536.1" y2="216"/>
<line class="st0" x1="536.1" y1="265" x2="536.1" y2="310.9"/>
<line class="st0" x1="635.6" y1="82.6" x2="635.6" y2="128.5"/>
<line class="st0" x1="635.6" y1="180.5" x2="635.6" y2="216"/>
<line class="st0" x1="635.6" y1="265" x2="635.6" y2="310.9"/>
<circle class="st0" cx="436" cy="152.9" r="24.4"/>
<circle class="st0" cx="336" cy="240.6" r="24.4"/>
<circle class="st0" cx="436" cy="240.6" r="24.4"/>
<ellipse transform="matrix(0.1602 -0.9871 0.9871 0.1602 212.4489 731.0064)" class="st0" cx="535.8" cy="240.7" rx="24.4" ry="24.4"/>
<line class="st0" x1="360.5" y1="240.7" x2="411.8" y2="240.7"/>
<line class="st0" x1="460.8" y1="240.7" x2="511.3" y2="240.7"/>
<circle class="st0" cx="436.1" cy="335.1" r="24.4"/>
<line class="st0" x1="435.9" y1="177.6" x2="435.9" y2="216"/>
<line class="st0" x1="435.9" y1="265" x2="435.9" y2="310.9"/>
<circle class="st0" cx="727.8" cy="59.8" r="24.4"/>
<circle class="st0" cx="827.8" cy="59.8" r="24.4"/>
<circle class="st0" cx="927.9" cy="59.8" r="24.4"/>
<circle class="st0" cx="1027.9" cy="59.8" r="24.4"/>
<circle class="st0" cx="1127.8" cy="59.9" r="24.4"/>
<circle class="st0" cx="1227.8" cy="59.9" r="24.4"/>
<line class="st0" x1="753.5" y1="59.9" x2="803.3" y2="59.9"/>
<line class="st0" x1="852.2" y1="59.9" x2="903.5" y2="59.9"/>
<line class="st0" x1="952.5" y1="59.9" x2="1003.7" y2="59.9"/>
<line class="st0" x1="1052.7" y1="59.9" x2="1103.2" y2="59.9"/>
<line class="st0" x1="1152.2" y1="59.9" x2="1203.5" y2="59.9"/>
<circle class="st0" cx="727.8" cy="154.3" r="24.4"/>
<circle class="st0" cx="827.9" cy="154.3" r="24.4"/>
<circle class="st0" cx="927.9" cy="154.3" r="24.4"/>
<ellipse transform="matrix(0.1735 -0.9848 0.9848 0.1735 779.9888 1238.3691)" class="st0" cx="1127.8" cy="154.5" rx="24.4" ry="24.4"/>
<circle class="st0" cx="1227.8" cy="154.5" r="24.4"/>
<line class="st0" x1="753.6" y1="154.4" x2="803.3" y2="154.4"/>
<line class="st0" x1="852.3" y1="154.4" x2="903.5" y2="154.4"/>
<line class="st0" x1="952.5" y1="154.4" x2="1003.8" y2="154.4"/>
<line class="st0" x1="1052.8" y1="154.4" x2="1103.3" y2="154.4"/>
<line class="st0" x1="1152.3" y1="154.4" x2="1203.5" y2="154.4"/>
<path class="st0" d="M703.4,242c0-13.5,10.9-24.4,24.4-24.4s24.4,10.9,24.4,24.4c0,13.5-10.9,24.4-24.4,24.4S703.4,255.5,703.4,242"
	/>
<circle class="st0" cx="827.9" cy="242" r="24.4"/>
<circle class="st0" cx="1227.8" cy="242.1" r="24.4"/>
<line class="st0" x1="753.5" y1="242.1" x2="803.3" y2="242.1"/>
<line class="st0" x1="852.3" y1="242.1" x2="903.5" y2="242.1"/>
<line class="st0" x1="1152.2" y1="242.1" x2="1203.5" y2="242.1"/>
<path class="st0" d="M703.4,336.5c0-13.5,10.9-24.4,24.4-24.4s24.4,10.9,24.4,24.4c0,13.5-10.9,24.4-24.4,24.4
	S703.4,350,703.4,336.5"/>
<circle class="st0" cx="827.9" cy="336.5" r="24.4"/>
<circle class="st0" cx="928" cy="336.5" r="24.4"/>
<ellipse transform="matrix(0.1602 -0.9871 0.9871 0.1602 614.8441 1396.0406)" class="st0" cx="1127.8" cy="336.7" rx="24.4" ry="24.4"/>
<circle class="st0" cx="1227.9" cy="336.7" r="24.4"/>
<line class="st0" x1="753.6" y1="336.6" x2="803.3" y2="336.6"/>
<line class="st0" x1="852.3" y1="336.6" x2="903.6" y2="336.6"/>
<line class="st0" x1="952.6" y1="336.6" x2="1003.8" y2="336.6"/>
<line class="st0" x1="1052.8" y1="336.6" x2="1103.3" y2="336.6"/>
<line class="st0" x1="1152.3" y1="336.6" x2="1203.5" y2="336.6"/>
<line class="st0" x1="727.9" y1="84" x2="727.9" y2="130"/>
<line class="st0" x1="727.9" y1="179" x2="727.9" y2="217.4"/>
<line class="st0" x1="727.9" y1="266.4" x2="727.9" y2="312.4"/>
<line class="st0" x1="828.1" y1="84" x2="828.1" y2="130"/>
<line class="st0" x1="828.1" y1="179" x2="828.1" y2="217.4"/>
<line class="st0" x1="825.9" y1="266.4" x2="825.9" y2="312.4"/>
<line class="st0" x1="927.6" y1="84" x2="927.6" y2="130"/>
<line class="st0" x1="927.6" y1="179" x2="927.6" y2="217.4"/>
<line class="st0" x1="927.6" y1="266.4" x2="927.6" y2="312.4"/>
<line class="st0" x1="1027.8" y1="84" x2="1027.8" y2="130"/>
<line class="st0" x1="1128.1" y1="84" x2="1128.1" y2="130"/>
<line class="st0" x1="1128.1" y1="182" x2="1128.1" y2="217.4"/>
<line class="st0" x1="1128.1" y1="266.4" x2="1128.1" y2="312.4"/>
<line class="st0" x1="1227.6" y1="84" x2="1227.6" y2="130"/>
<line class="st0" x1="1227.6" y1="182" x2="1227.6" y2="217.4"/>
<line class="st0" x1="1227.6" y1="266.4" x2="1227.6" y2="312.4"/>
<circle class="st0" cx="1028" cy="154.3" r="24.4"/>
<circle class="st0" cx="927.9" cy="242" r="24.4"/>
<circle class="st0" cx="1028" cy="242" r="24.4"/>
<ellipse transform="matrix(0.1602 -0.9871 0.9871 0.1602 708.158 1316.5685)" class="st0" cx="1127.8" cy="242.1" rx="24.4" ry="24.4"/>
<line class="st0" x1="952.5" y1="242.1" x2="1003.8" y2="242.1"/>
<line class="st0" x1="1052.8" y1="242.1" x2="1103.3" y2="242.1"/>
<circle class="st0" cx="1028" cy="336.5" r="24.4"/>
<line class="st0" x1="1027.8" y1="179" x2="1027.8" y2="217.4"/>
<line class="st0" x1="1027.8" y1="266.4" x2="1027.8" y2="312.4"/>
<line class="st0" x1="136.3" y1="360.9" x2="136.3" y2="406.9"/>
<line class="st0" x1="234.3" y1="360.9" x2="234.3" y2="406.9"/>
<line class="st0" x1="336" y1="360.9" x2="336" y2="406.9"/>
<line class="st0" x1="536.5" y1="360.9" x2="536.5" y2="406.9"/>
<line class="st0" x1="636" y1="360.9" x2="636" y2="406.9"/>
<line class="st0" x1="436.3" y1="360.9" x2="436.3" y2="406.9"/>
<line class="st0" x1="728.3" y1="362.3" x2="728.3" y2="408.3"/>
<line class="st0" x1="826.3" y1="362.3" x2="826.3" y2="408.3"/>
<line class="st0" x1="928.1" y1="362.3" x2="928.1" y2="408.3"/>
<line class="st0" x1="1128.5" y1="362.3" x2="1128.5" y2="408.3"/>
<line class="st0" x1="1228.1" y1="362.3" x2="1228.1" y2="408.3"/>
<line class="st0" x1="1028.3" y1="362.3" x2="1028.3" y2="408.3"/>
<line class="st0" x1="656.1" y1="58.4" x2="707.4" y2="58.4"/>
<line class="st0" x1="656.2" y1="152.9" x2="707.4" y2="152.9"/>
<line class="st0" x1="656.1" y1="240.6" x2="707.4" y2="240.6"/>
<line class="st0" x1="656.2" y1="335.1" x2="707.4" y2="335.1"/>
<circle class="st0" cx="138.1" cy="431.3" r="24.4"/>
<circle class="st0" cx="238.2" cy="431.3" r="24.4"/>
<circle class="st0" cx="338.2" cy="431.3" r="24.4"/>
<circle class="st0" cx="438.3" cy="431.3" r="24.4"/>
<circle class="st0" cx="538.1" cy="431.5" r="24.4"/>
<circle class="st0" cx="638.1" cy="431.5" r="24.4"/>
<line class="st0" x1="163.8" y1="431.4" x2="213.6" y2="431.4"/>
<line class="st0" x1="262.6" y1="431.4" x2="313.8" y2="431.4"/>
<line class="st0" x1="362.8" y1="431.4" x2="414" y2="431.4"/>
<line class="st0" x1="463" y1="431.4" x2="513.5" y2="431.4"/>
<line class="st0" x1="562.6" y1="431.4" x2="613.8" y2="431.4"/>
<circle class="st0" cx="138.2" cy="525.8" r="24.4"/>
<circle class="st0" cx="238.2" cy="525.8" r="24.4"/>
<circle class="st0" cx="338.2" cy="525.8" r="24.4"/>
<ellipse transform="matrix(0.1735 -0.9848 0.9848 0.1735 -73.2548 964.6716)" class="st0" cx="538.1" cy="526" rx="24.4" ry="24.4"/>
<circle class="st0" cx="638.2" cy="526" r="24.4"/>
<line class="st0" x1="163.9" y1="525.9" x2="213.6" y2="525.9"/>
<line class="st0" x1="262.6" y1="525.9" x2="313.9" y2="525.9"/>
<line class="st0" x1="362.8" y1="525.9" x2="414.1" y2="525.9"/>
<line class="st0" x1="463.1" y1="525.9" x2="513.6" y2="525.9"/>
<line class="st0" x1="562.6" y1="525.9" x2="613.9" y2="525.9"/>
<path class="st0" d="M113.7,613.5c0-13.5,10.9-24.4,24.4-24.4c13.5,0,24.4,10.9,24.4,24.4c0,13.5-10.9,24.4-24.4,24.4
	C124.7,637.9,113.7,627,113.7,613.5"/>
<circle class="st0" cx="238.2" cy="613.5" r="24.4"/>
<circle class="st0" cx="638.2" cy="613.6" r="24.4"/>
<line class="st0" x1="163.8" y1="613.6" x2="213.6" y2="613.6"/>
<line class="st0" x1="262.6" y1="613.6" x2="313.9" y2="613.6"/>
<line class="st0" x1="562.6" y1="613.6" x2="613.8" y2="613.6"/>
<path class="st0" d="M113.8,708.1c0-13.5,10.9-24.4,24.4-24.4s24.4,10.9,24.4,24.4c0,13.5-10.9,24.4-24.4,24.4
	S113.8,721.5,113.8,708.1"/>
<circle class="st0" cx="238.2" cy="708.1" r="24.4"/>
<circle class="st0" cx="338.3" cy="708.1" r="24.4"/>
<ellipse transform="matrix(0.1602 -0.9871 0.9871 0.1602 -247.092 1125.9625)" class="st0" cx="538.2" cy="708.2" rx="24.4" ry="24.4"/>
<circle class="st0" cx="638.2" cy="708.2" r="24.4"/>
<line class="st0" x1="163.9" y1="708.1" x2="213.7" y2="708.1"/>
<line class="st0" x1="262.6" y1="708.1" x2="313.9" y2="708.1"/>
<line class="st0" x1="362.9" y1="708.1" x2="414.1" y2="708.1"/>
<line class="st0" x1="463.1" y1="708.1" x2="513.6" y2="708.1"/>
<line class="st0" x1="562.6" y1="708.1" x2="613.9" y2="708.1"/>
<line class="st0" x1="138.2" y1="455.5" x2="138.2" y2="501.5"/>
<line class="st0" x1="138.2" y1="550.5" x2="138.2" y2="588.9"/>
<line class="st0" x1="138.2" y1="637.9" x2="138.2" y2="683.9"/>
<line class="st0" x1="238.4" y1="455.5" x2="238.4" y2="501.5"/>
<line class="st0" x1="238.4" y1="550.5" x2="238.4" y2="588.9"/>
<line class="st0" x1="236.2" y1="637.9" x2="236.2" y2="683.9"/>
<line class="st0" x1="337.9" y1="455.5" x2="337.9" y2="501.5"/>
<line class="st0" x1="337.9" y1="550.5" x2="337.9" y2="588.9"/>
<line class="st0" x1="337.9" y1="637.9" x2="337.9" y2="683.9"/>
<line class="st0" x1="438.2" y1="455.5" x2="438.2" y2="501.5"/>
<line class="st0" x1="538.4" y1="455.5" x2="538.4" y2="501.5"/>
<line class="st0" x1="538.4" y1="553.5" x2="538.4" y2="588.9"/>
<line class="st0" x1="538.4" y1="637.9" x2="538.4" y2="683.9"/>
<line class="st0" x1="637.9" y1="455.5" x2="637.9" y2="501.5"/>
<line class="st0" x1="637.9" y1="553.5" x2="637.9" y2="588.9"/>
<line class="st0" x1="637.9" y1="637.9" x2="637.9" y2="683.9"/>
<circle class="st0" cx="438.3" cy="525.8" r="24.4"/>
<circle class="st0" cx="338.2" cy="613.5" r="24.4"/>
<circle class="st0" cx="438.3" cy="613.5" r="24.4"/>
<ellipse transform="matrix(0.1602 -0.9871 0.9871 0.1602 -153.7781 1046.4905)" class="st0" cx="538.1" cy="613.6" rx="24.4" ry="24.4"/>
<line class="st0" x1="362.8" y1="613.6" x2="414.1" y2="613.6"/>
<line class="st0" x1="463.1" y1="613.6" x2="513.6" y2="613.6"/>
<circle class="st0" cx="438.3" cy="708.1" r="24.4"/>
<line class="st0" x1="438.2" y1="550.5" x2="438.2" y2="588.9"/>
<line class="st0" x1="438.2" y1="637.9" x2="438.2" y2="683.9"/>
<circle class="st0" cx="730.1" cy="432.8" r="24.4"/>
<circle class="st0" cx="830.1" cy="432.8" r="24.4"/>
<circle class="st0" cx="930.2" cy="432.8" r="24.4"/>
<circle class="st0" cx="1030.2" cy="432.8" r="24.4"/>
<circle class="st0" cx="1130" cy="432.9" r="24.4"/>
<circle class="st0" cx="1230.1" cy="432.9" r="24.4"/>
<line class="st0" x1="755.8" y1="432.9" x2="805.5" y2="432.9"/>
<line class="st0" x1="854.5" y1="432.9" x2="905.8" y2="432.9"/>
<line class="st0" x1="954.8" y1="432.9" x2="1006" y2="432.9"/>
<line class="st0" x1="1055" y1="432.9" x2="1105.5" y2="432.9"/>
<line class="st0" x1="1154.5" y1="432.9" x2="1205.8" y2="432.9"/>
<circle class="st0" cx="730.1" cy="527.3" r="24.4"/>
<circle class="st0" cx="830.2" cy="527.3" r="24.4"/>
<circle class="st0" cx="930.2" cy="527.3" r="24.4"/>
<ellipse transform="matrix(0.1735 -0.9848 0.9848 0.1735 414.572 1548.8799)" class="st0" cx="1130.1" cy="527.4" rx="24.4" ry="24.4"/>
<circle class="st0" cx="1230.1" cy="527.4" r="24.4"/>
<line class="st0" x1="755.8" y1="527.4" x2="805.6" y2="527.4"/>
<line class="st0" x1="854.6" y1="527.4" x2="905.8" y2="527.4"/>
<line class="st0" x1="954.8" y1="527.4" x2="1006.1" y2="527.4"/>
<line class="st0" x1="1055.1" y1="527.4" x2="1105.6" y2="527.4"/>
<line class="st0" x1="1154.6" y1="527.4" x2="1205.8" y2="527.4"/>
<path class="st0" d="M705.7,615c0-13.5,10.9-24.4,24.4-24.4s24.4,10.9,24.4,24.4c0,13.5-10.9,24.4-24.4,24.4S705.7,628.4,705.7,615"
	/>
<circle class="st0" cx="830.2" cy="615" r="24.4"/>
<circle class="st0" cx="1230.1" cy="615.1" r="24.4"/>
<line class="st0" x1="755.8" y1="615.1" x2="805.5" y2="615.1"/>
<line class="st0" x1="854.6" y1="615.1" x2="905.8" y2="615.1"/>
<line class="st0" x1="1154.5" y1="615.1" x2="1205.8" y2="615.1"/>
<path class="st0" d="M705.7,709.5c0-13.5,10.9-24.4,24.4-24.4s24.4,10.9,24.4,24.4c0,13.5-10.9,24.4-24.4,24.4
	S705.7,723,705.7,709.5"/>
<circle class="st0" cx="830.2" cy="709.5" r="24.4"/>
<circle class="st0" cx="930.3" cy="709.5" r="24.4"/>
<ellipse transform="matrix(0.1602 -0.9871 0.9871 0.1602 248.617 1711.5247)" class="st0" cx="1130.1" cy="709.7" rx="24.4" ry="24.4"/>
<circle class="st0" cx="1230.2" cy="709.7" r="24.4"/>
<line class="st0" x1="755.8" y1="709.6" x2="805.6" y2="709.6"/>
<line class="st0" x1="854.6" y1="709.6" x2="905.9" y2="709.6"/>
<line class="st0" x1="954.9" y1="709.6" x2="1006.1" y2="709.6"/>
<line class="st0" x1="1055.1" y1="709.6" x2="1105.6" y2="709.6"/>
<line class="st0" x1="1154.6" y1="709.6" x2="1205.8" y2="709.6"/>
<line class="st0" x1="730.2" y1="457" x2="730.2" y2="502.9"/>
<line class="st0" x1="730.2" y1="552" x2="730.2" y2="590.4"/>
<line class="st0" x1="730.2" y1="639.4" x2="730.2" y2="685.4"/>
<line class="st0" x1="830.4" y1="457" x2="830.4" y2="502.9"/>
<line class="st0" x1="830.4" y1="552" x2="830.4" y2="590.4"/>
<line class="st0" x1="828.1" y1="639.4" x2="828.1" y2="685.4"/>
<line class="st0" x1="929.9" y1="457" x2="929.9" y2="502.9"/>
<line class="st0" x1="929.9" y1="552" x2="929.9" y2="590.4"/>
<line class="st0" x1="929.9" y1="639.4" x2="929.9" y2="685.4"/>
<line class="st0" x1="1030.1" y1="457" x2="1030.1" y2="502.9"/>
<line class="st0" x1="1130.4" y1="457" x2="1130.4" y2="502.9"/>
<line class="st0" x1="1130.4" y1="555" x2="1130.4" y2="590.4"/>
<line class="st0" x1="1130.4" y1="639.4" x2="1130.4" y2="685.4"/>
<line class="st0" x1="1229.9" y1="457" x2="1229.9" y2="502.9"/>
<line class="st0" x1="1229.9" y1="555" x2="1229.9" y2="590.4"/>
<line class="st0" x1="1229.9" y1="639.4" x2="1229.9" y2="685.4"/>
<circle class="st0" cx="1030.3" cy="527.3" r="24.4"/>
<circle class="st0" cx="930.2" cy="615" r="24.4"/>
<circle class="st0" cx="1030.3" cy="615" r="24.4"/>
<ellipse transform="matrix(0.1602 -0.9871 0.9871 0.1602 341.931 1632.0526)" class="st0" cx="1130.1" cy="615.1" rx="24.4" ry="24.4"/>
<line class="st0" x1="954.8" y1="615.1" x2="1006.1" y2="615.1"/>
<line class="st0" x1="1055.1" y1="615.1" x2="1105.5" y2="615.1"/>
<circle class="st0" cx="1030.3" cy="709.5" r="24.4"/>
<line class="st0" x1="1030.1" y1="552" x2="1030.1" y2="590.4"/>
<line class="st0" x1="1030.1" y1="639.4" x2="1030.1" y2="685.4"/>
<line class="st0" x1="658.4" y1="431.4" x2="709.7" y2="431.4"/>
<line class="st0" x1="658.4" y1="525.9" x2="709.7" y2="525.9"/>
<line class="st0" x1="658.4" y1="613.6" x2="709.7" y2="613.6"/>
<line class="st0" x1="658.4" y1="708.1" x2="709.7" y2="708.1"/>
</svg>
