<?xml version="1.0" encoding="utf-8"?>
<!-- Generator: Adobe Illustrator 25.2.1, SVG Export Plug-In . SVG Version: 6.00 Build 0)  -->
<svg version="1.1" id="Layer_1" xmlns="http://www.w3.org/2000/svg" xmlns:xlink="http://www.w3.org/1999/xlink" x="0px" y="0px"
	 viewBox="0 0 1366 768" style="enable-background:new 0 0 1366 768;" xml:space="preserve">
<style type="text/css">
	.st0{fill:none;stroke:#646464;stroke-width:15;stroke-miterlimit:10;}
	.st1{fill:none;stroke:#000000;stroke-width:15;stroke-miterlimit:10;}
</style>
<circle class="st0" cx="153.3" cy="90.7" r="51.7"/>
<circle class="st0" cx="365.3" cy="90.7" r="51.7"/>
<circle class="st0" cx="577.3" cy="90.7" r="51.7"/>
<circle class="st0" cx="789.3" cy="90.7" r="51.7"/>
<circle class="st0" cx="1000.8" cy="91" r="51.7"/>
<circle class="st0" cx="1212.8" cy="91" r="51.7"/>
<line class="st0" x1="207.8" y1="90.9" x2="313.2" y2="90.9"/>
<line class="st0" x1="417" y1="90.9" x2="525.6" y2="90.9"/>
<line class="st0" x1="629.4" y1="90.9" x2="738" y2="90.9"/>
<line class="st0" x1="841.8" y1="90.9" x2="948.8" y2="90.9"/>
<line class="st0" x1="1052.7" y1="90.9" x2="1161.3" y2="90.9"/>
<circle class="st0" cx="153.4" cy="291" r="51.7"/>
<circle class="st0" cx="365.4" cy="291" r="51.7"/>
<circle class="st0" cx="577.4" cy="291" r="51.7"/>
<circle class="st0" cx="1000.9" cy="291.3" r="51.7"/>
<circle class="st0" cx="1212.9" cy="291.3" r="51.7"/>
<line class="st0" x1="207.9" y1="291.2" x2="313.3" y2="291.2"/>
<line class="st0" x1="417.1" y1="291.2" x2="525.7" y2="291.2"/>
<line class="st0" x1="629.5" y1="291.2" x2="738.1" y2="291.2"/>
<line class="st0" x1="841.9" y1="291.2" x2="949" y2="291.2"/>
<line class="st0" x1="1052.8" y1="291.2" x2="1161.4" y2="291.2"/>
<path class="st0" d="M101.6,476.8c0-28.6,23.2-51.7,51.7-51.7s51.7,23.2,51.7,51.7c0,28.6-23.2,51.7-51.7,51.7
	S101.6,505.3,101.6,476.8"/>
<circle class="st0" cx="365.4" cy="476.8" r="51.7"/>
<circle class="st0" cx="1212.9" cy="477" r="51.7"/>
<line class="st0" x1="207.8" y1="477" x2="313.2" y2="477"/>
<line class="st0" x1="417.1" y1="477" x2="525.7" y2="477"/>
<line class="st0" x1="1052.7" y1="477" x2="1161.3" y2="477"/>
<path class="st0" d="M101.7,677.1c0-28.6,23.2-51.7,51.7-51.7s51.7,23.2,51.7,51.7c0,28.6-23.2,51.7-51.7,51.7
	S101.7,705.6,101.7,677.1"/>
<circle class="st0" cx="365.5" cy="677.1" r="51.7"/>
<circle class="st0" cx="577.5" cy="677.1" r="51.7"/>
<circle class="st0" cx="1001" cy="677.4" r="51.7"/>
<circle class="st0" cx="1213" cy="677.4" r="51.7"/>
<line class="st0" x1="207.9" y1="677.3" x2="313.4" y2="677.3"/>
<line class="st0" x1="417.2" y1="677.3" x2="525.8" y2="677.3"/>
<line class="st0" x1="629.6" y1="677.3" x2="738.2" y2="677.3"/>
<line class="st0" x1="842" y1="677.3" x2="949" y2="677.3"/>
<line class="st0" x1="1052.8" y1="677.3" x2="1161.4" y2="677.3"/>
<line class="st0" x1="153.5" y1="142" x2="153.5" y2="239.4"/>
<line class="st0" x1="153.5" y1="343.3" x2="153.5" y2="424.7"/>
<line class="st0" x1="153.5" y1="528.5" x2="153.5" y2="625.9"/>
<line class="st0" x1="365.9" y1="142" x2="365.9" y2="239.4"/>
<line class="st0" x1="365.9" y1="343.3" x2="365.9" y2="424.7"/>
<line class="st0" x1="361.1" y1="528.5" x2="361.1" y2="625.9"/>
<line class="st0" x1="576.7" y1="142" x2="576.7" y2="239.4"/>
<line class="st0" x1="576.7" y1="343.3" x2="576.7" y2="424.7"/>
<line class="st0" x1="576.7" y1="528.5" x2="576.7" y2="625.9"/>
<line class="st0" x1="789.1" y1="142" x2="789.1" y2="239.4"/>
<line class="st0" x1="1001.5" y1="142" x2="1001.5" y2="239.4"/>
<line class="st0" x1="1001.5" y1="349.6" x2="1001.5" y2="424.7"/>
<line class="st0" x1="1001.5" y1="528.5" x2="1001.5" y2="625.9"/>
<line class="st0" x1="1212.4" y1="142" x2="1212.4" y2="239.4"/>
<line class="st0" x1="1212.4" y1="349.6" x2="1212.4" y2="424.7"/>
<line class="st0" x1="1212.4" y1="528.5" x2="1212.4" y2="625.9"/>
<circle class="st1" cx="789.4" cy="291" r="51.7"/>
<circle class="st1" cx="577.4" cy="476.8" r="51.7"/>
<circle class="st1" cx="789.4" cy="476.8" r="51.7"/>
<circle class="st1" cx="1000.9" cy="477" r="51.7"/>
<line class="st1" x1="629.5" y1="477" x2="738.1" y2="477"/>
<line class="st1" x1="841.9" y1="477" x2="948.9" y2="477"/>
<circle class="st1" cx="789.5" cy="677.1" r="51.7"/>
<line class="st1" x1="789.1" y1="343.3" x2="789.1" y2="424.7"/>
<line class="st1" x1="789.1" y1="528.5" x2="789.1" y2="625.9"/>
</svg>
